<?xml version="1.0" encoding="utf-8"?>
<!-- Generator: Adobe Illustrator 16.2.1, SVG Export Plug-In . SVG Version: 6.00 Build 0)  -->
<!DOCTYPE svg PUBLIC "-//W3C//DTD SVG 1.1//EN" "http://www.w3.org/Graphics/SVG/1.1/DTD/svg11.dtd">
<svg version="1.1" id="Layer_1" xmlns="http://www.w3.org/2000/svg" xmlns:xlink="http://www.w3.org/1999/xlink" x="0px" y="0px"
	 width="1224px" height="792px" viewBox="0 0 1224 792" enable-background="new 0 0 1224 792" xml:space="preserve">
<g>
	<path fill="#333132" d="M235.088,263.911v-74.046h36.648v187.991h-36.648v-84.022h-67.815v84.022H130.62V189.865h36.652v74.046
		H235.088z"/>
	<path fill="#333132" d="M335.31,221.779v41.387h58.342v31.913H335.31v50.861h60.584v31.916h-97.236V189.865h97.236v31.914H335.31z"
		/>
	<path fill="#333132" d="M547.478,377.855h-44.381l-45.625-75.796h-0.497v75.796h-36.652V189.865h49.614
		c37.149,0,62.832,16.454,62.832,56.595c0,23.936-13.215,47.869-38.396,52.108L547.478,377.855z M456.974,276.379h4.735
		c20.194,0,34.408-5.984,34.408-28.921c0-23.19-14.71-27.676-34.16-27.676h-4.983V276.379z"/>
	<path fill="#333132" d="M699.812,261.169h-0.506l-42.63,119.178h-12.714l-41.141-119.178h-0.501l-16.702,116.686h-36.901
		l31.666-192.978h25.926l46.376,123.913l44.383-123.913h26.437l28.172,192.978h-36.901L699.812,261.169z"/>
	<path fill="#333132" d="M812.487,338.21l-21.687,39.646h-38.636l103.963-192.978h28.426l40.641,192.978h-39.157l-8.225-39.646
		H812.487z M859.869,239.976h-0.506l-31.66,68.317h44.634L859.869,239.976z"/>
	<path fill="#333132" d="M936.399,184.878h26.422l98.991,131.394h0.489V189.865h36.647v191.73h-26.42L973.555,250.2h-0.506v127.655
		h-36.649V184.878z"/>
</g>
<g>
	<path fill="#333132" d="M251.412,453.336c-7.479-12.974-16.454-20.446-32.411-20.446c-16.707,0-31.164,11.971-31.164,29.174
		c0,16.204,16.703,23.684,29.419,29.42l12.465,5.478c24.432,10.723,45.127,22.938,45.127,52.857
		c0,32.914-26.429,58.097-59.087,58.097c-30.17,0-52.609-19.445-58.592-48.619l20.443-5.737
		c2.742,19.199,17.452,34.911,37.646,34.911c20.195,0,38.646-15.466,38.646-36.654c0-21.94-17.204-29.422-34.656-37.4l-11.466-4.986
		c-21.942-9.977-40.89-21.197-40.89-48.122c0-29.167,24.681-47.871,52.605-47.871c20.944,0,38.645,10.725,48.62,29.176
		L251.412,453.336z"/>
	<path fill="#333132" d="M455.104,457.82c-14.958-15.452-35.655-24.931-57.345-24.931c-41.888,0-75.792,36.404-75.792,77.786
		c0,41.383,34.157,77.794,76.291,77.794c21.191,0,41.888-9.975,56.846-24.937v25.931c-16.206,11.713-36.151,18.451-56.098,18.451
		c-53.106,0-97.985-43.136-97.985-96.49c0-53.857,44.13-97.989,97.985-97.989c20.943,0,39.396,5.991,56.098,18.451V457.82z"/>
	<path fill="#333132" d="M614.915,492.974v-76.286h20.944v187.984h-20.944V512.43H518.67v92.242h-20.946V416.688h20.946v76.286
		H614.915z"/>
	<path fill="#333132" d="M680.966,416.688h97.484v19.445h-76.539v55.84h74.301v19.452h-74.301v73.795h76.539v19.452h-97.484V416.688
		z"/>
	<path fill="#333132" d="M820.332,416.688h97.483v19.445h-76.541v55.84h74.3v19.452h-74.3v73.795h76.541v19.452h-97.483V416.688z"/>
	<path fill="#333132" d="M980.641,604.672h-20.945V416.688h27.178c35.655,0,68.816,9.471,68.816,51.856
		c0,28.923-18.206,49.36-47.129,51.854l59.84,84.273h-25.678l-56.852-82.521h-5.23V604.672z M980.641,503.698h6.479
		c23.691,0,47.625-4.489,47.625-33.663c0-30.912-22.689-33.902-47.871-33.902h-6.232V503.698z"/>
</g>
<line fill="none" stroke="#333132" stroke-width="2" stroke-miterlimit="10" x1="131" y1="397" x2="1099" y2="397"/>
</svg>
